<svg width="150" height="138" viewBox="0 0 150 138" fill="none" xmlns="http://www.w3.org/2000/svg">
<path d="M77 89H73V97H77V89Z" fill="black"/>
<path d="M77 41H73V49H77V41Z" fill="black"/>
<path d="M55 67H47V71H55V67Z" fill="black"/>
<path d="M103 67H95V71H103V67Z" fill="black"/>
<path d="M96.2054 87.3856L90.5458 81.726L87.7174 84.5544L93.377 90.214L96.2054 87.3856Z" fill="black"/>
<path d="M62.2654 53.4457L56.6058 47.786L53.7774 50.6144L59.437 56.2741L62.2654 53.4457Z" fill="black"/>
<path d="M62.2736 84.5534L59.4452 81.725L53.7856 87.3846L56.614 90.213L62.2736 84.5534Z" fill="black"/>
<path d="M96.2116 50.6144L93.3832 47.786L87.7236 53.4456L90.552 56.274L96.2116 50.6144Z" fill="black"/>
<path d="M100.47 137.04C93.23 137.04 85.046 134.27 76.486 128.811C63.117 120.286 50.298 106.14 40.391 88.98C30.484 71.82 24.643 53.647 23.944 37.806C23.225 21.498 28.038 9.51 37.497 4.048C46.956 -1.414 59.746 0.413003 73.509 9.189C86.878 17.714 99.697 31.86 109.604 49.02C119.511 66.18 125.352 84.353 126.051 100.194C126.77 116.502 121.956 128.49 112.497 133.951C108.922 136.016 104.869 137.04 100.47 137.04V137.04ZM49.548 4.96C45.837 4.96 42.454 5.805 39.497 7.512C31.393 12.19 27.289 22.886 27.939 37.629C28.61 52.839 34.262 70.366 43.855 86.98C53.447 103.594 65.798 117.251 78.635 125.438C91.078 133.373 102.392 135.165 110.496 130.488C118.6 125.81 122.704 115.114 122.054 100.371C121.383 85.161 115.731 67.634 106.138 51.02C96.546 34.406 84.195 20.749 71.358 12.562C63.455 7.522 56.007 4.96 49.548 4.96V4.96Z" fill="black"/>
<path d="M49.53 137.04C45.13 137.04 41.079 136.017 37.503 133.952C28.044 128.491 23.231 116.502 23.949 100.195C24.648 84.354 30.489 66.18 40.396 49.021C50.303 31.862 63.122 17.716 76.491 9.19C90.253 0.415004 103.044 -1.414 112.503 4.049C121.962 9.51 126.775 21.499 126.057 37.806C125.358 53.647 119.517 71.821 109.61 88.98C99.703 106.139 86.884 120.285 73.515 128.811C64.955 134.269 56.771 137.04 49.53 137.04V137.04ZM100.452 4.96C93.993 4.96 86.546 7.522 78.641 12.562C65.804 20.749 53.453 34.406 43.861 51.02C34.268 67.634 28.616 85.16 27.945 100.371C27.295 115.114 31.399 125.81 39.503 130.488C47.605 135.165 58.92 133.373 71.364 125.438C84.201 117.251 96.552 103.594 106.144 86.98C115.737 70.366 121.389 52.84 122.06 37.629C122.71 22.886 118.606 12.19 110.502 7.512C107.547 5.806 104.162 4.96 100.452 4.96V4.96Z" fill="black"/>
<path d="M75 108.96C55.186 108.96 36.526 104.931 22.459 97.616C7.976 90.085 0 79.922 0 69C0 58.078 7.976 47.915 22.459 40.384C36.526 33.069 55.186 29.04 75 29.04C94.814 29.04 113.474 33.069 127.541 40.384C142.024 47.915 150 58.078 150 69C150 79.922 142.024 90.085 127.541 97.616C113.474 104.931 94.814 108.96 75 108.96V108.96ZM75 33.04C35.851 33.04 4 49.171 4 69C4 88.829 35.851 104.96 75 104.96C114.149 104.96 146 88.829 146 69C146 49.171 114.149 33.04 75 33.04V33.04Z" fill="black"/>
<path d="M75 84C83.2843 84 90 77.2843 90 69C90 60.7157 83.2843 54 75 54C66.7157 54 60 60.7157 60 69C60 77.2843 66.7157 84 75 84Z" fill="#FF8C1A"/>
<path d="M75 86C65.626 86 58 78.374 58 69C58 59.626 65.626 52 75 52C84.374 52 92 59.626 92 69C92 78.374 84.374 86 75 86ZM75 56C67.832 56 62 61.832 62 69C62 76.168 67.832 82 75 82C82.168 82 88 76.168 88 69C88 61.832 82.168 56 75 56Z" fill="black"/>
</svg>
